<svg width="658" height="452" viewBox="0 0 658 452" fill="none" xmlns="http://www.w3.org/2000/svg">
<path d="M76.6224 5.28198C45.7137 9.17853 18.4413 31.7785 8.83108 61.4789C4.24239 75.5931 4.32897 71.2636 4.32897 225.48C4.32897 379.957 4.24239 377.359 8.91766 390.954C18.2682 418.057 38.7874 436.933 68.2242 445.333L74.8908 447.238L221.382 447.497C383.631 447.757 377.744 447.93 393.068 442.215C422.938 430.959 443.717 404.289 446.747 373.29C447.873 361.773 447.873 87.5425 446.747 77.7578C442.505 40.7839 413.761 11.1701 376.618 5.54175C369.692 4.50267 345.71 4.32949 225.538 4.41608C147.011 4.50267 79.999 4.84903 76.6224 5.28198ZM380.515 24.505C383.372 25.2843 389.432 27.7954 393.934 30.0467C400.861 33.4237 403.371 35.2421 409.951 41.9096C418.609 50.5686 423.285 58.3617 427.007 70.1379L428.999 76.6322V226V375.368L427.007 381.862C419.648 405.328 401.986 421.953 378.35 427.841C374.454 428.88 347.788 429.054 225.538 429.054C58.614 429.054 73.6787 429.66 58.3542 422.126C43.3761 414.853 31.6013 401.172 25.8871 384.633L22.9434 376.234V226.433V76.6322L24.9348 70.1379C32.2074 46.9318 51.3413 28.6613 72.7263 24.3318C75.3237 23.8123 78.2674 23.2061 79.2198 23.0329C80.1721 22.8598 147.184 22.7732 228.136 22.8598C365.45 22.9463 375.666 23.0329 380.515 24.505Z" fill="white"/>
<path d="M99.4793 148.848C97.488 150.84 96.9685 152.139 96.9685 154.996C96.9685 157.854 97.488 159.152 99.4793 161.144L101.99 163.655H225.885H349.692L352.117 161.577C354.195 159.759 354.541 158.806 354.541 154.996C354.541 151.186 354.195 150.234 352.117 148.415L349.692 146.337H225.885H101.99L99.4793 148.848Z" fill="white"/>
<path d="M101.384 221.151C96.449 223.835 95.5832 230.416 99.4792 234.832L101.99 237.69L160.085 237.949C224.153 238.209 221.902 238.382 224.759 232.841C226.664 229.117 225.711 224.961 222.421 222.19L219.737 219.939H161.643C114.977 220.025 103.029 220.198 101.384 221.151Z" fill="white"/>
<path d="M102.51 294.406C99.739 295.532 96.9685 299.515 96.9685 302.372C96.9685 305.836 99.0464 309.473 101.73 310.685C103.375 311.464 125.02 311.724 189.608 311.724H275.148L277.832 309.473C281.122 306.702 282.074 302.546 280.17 298.822C277.226 293.28 282.247 293.54 189.002 293.627C142.422 293.627 103.462 293.973 102.51 294.406Z" fill="white"/>
<path d="M434.194 20.5218C432.289 20.695 429.085 21.0414 427.007 21.3011L423.198 21.7341L427.873 26.7563C430.384 29.4406 433.501 32.8176 434.713 34.2896L437.051 36.9739L453.76 37.4935C470.903 37.9264 479.215 39.0521 494.452 42.9486C532.547 52.4735 568.045 75.1601 593.499 106.073C610.901 127.201 624.061 153.005 630.728 179.155C635.23 196.906 635.922 202.534 635.922 226C635.922 249.466 635.23 255.094 630.728 272.845C622.849 303.585 606.745 332.679 584.754 355.798C548.997 393.465 500.34 414.68 449.691 414.766H436.531L434.973 417.191C434.194 418.49 431.163 421.953 428.393 424.811L423.285 430.179L426.142 430.612C438.09 432.69 464.496 431.911 481.812 428.967C536.53 419.788 585.88 388.097 617.481 342.031C636.442 314.495 647.524 284.795 652.026 250.245C653.411 239.508 653.498 212.232 652.113 201.755C647.437 166.686 635.663 136.033 616.009 107.805C585.014 63.2973 535.577 31.9517 482.245 23.0329C466.661 20.4352 447.267 19.3961 434.194 20.5218Z" fill="white"/>
<path d="M452.288 141.402C452.115 142.008 451.942 145.818 452.115 149.801L452.375 157.074L459.128 158.2C500.686 165.214 526.4 208.336 512.634 248.167C504.236 272.585 484.063 289.644 458.609 293.887L452.375 294.926L452.115 302.632C451.942 306.789 452.202 310.598 452.548 310.945C453.587 311.984 465.275 310.166 473.154 307.654C499.561 299.428 520.859 278.127 529.257 251.544C543.023 207.643 518.868 159.845 475.318 145.038C469.777 143.133 466.747 142.527 455.578 140.622C453.674 140.362 452.635 140.536 452.288 141.402Z" fill="white"/>
<path d="M451.942 226C451.942 240.893 452.029 241.586 453.674 241.586C455.838 241.586 461.12 236.91 462.938 233.447C463.717 231.975 464.323 228.684 464.323 226C464.323 223.316 463.717 220.025 462.938 218.553C461.12 215.09 455.838 210.414 453.674 210.414C452.029 210.414 451.942 211.106 451.942 226Z" fill="white"/>
</svg>
