<?xml version="1.0" standalone="no"?>
<!DOCTYPE svg PUBLIC "-//W3C//DTD SVG 20010904//EN"
 "http://www.w3.org/TR/2001/REC-SVG-20010904/DTD/svg10.dtd">
<svg version="1.0" xmlns="http://www.w3.org/2000/svg"
 width="760.000000pt" height="522.000000pt" viewBox="0 0 760.000000 522.000000"
 preserveAspectRatio="xMidYMid meet">

<g transform="translate(0.000000,522.000000) scale(0.100000,-0.100000)"
fill="#000000" stroke="none">
<path d="M885 5159 c-357 -45 -672 -306 -783 -649 -53 -163 -52 -113 -52
-1894 0 -1784 -1 -1754 53 -1911 108 -313 345 -531 685 -628 l77 -22 1692 -3
c1874 -3 1806 -5 1983 61 345 130 585 438 620 796 13 133 13 3300 0 3413 -49
427 -381 769 -810 834 -80 12 -357 14 -1745 13 -907 -1 -1681 -5 -1720 -10z
m3510 -222 c33 -9 103 -38 155 -64 80 -39 109 -60 185 -137 100 -100 154 -190
197 -326 l23 -75 0 -1725 0 -1725 -23 -75 c-85 -271 -289 -463 -562 -531 -45
-12 -353 -14 -1765 -14 -1928 0 -1754 -7 -1931 80 -173 84 -309 242 -375 433
l-34 97 0 1730 0 1730 23 75 c84 268 305 479 552 529 30 6 64 13 75 15 11 2
785 3 1720 2 1586 -1 1704 -2 1760 -19z"/>
<path d="M1149 3501 c-23 -23 -29 -38 -29 -71 0 -33 6 -48 29 -71 l29 -29
1431 0 1430 0 28 24 c24 21 28 32 28 76 0 44 -4 55 -28 76 l-28 24 -1430 0
-1431 0 -29 -29z"/>
<path d="M1171 2666 c-57 -31 -67 -107 -22 -158 l29 -33 671 -3 c740 -3 714
-5 747 59 22 43 11 91 -27 123 l-31 26 -671 0 c-539 -1 -677 -3 -696 -14z"/>
<path d="M1184 1820 c-32 -13 -64 -59 -64 -92 0 -40 24 -82 55 -96 19 -9 269
-12 1015 -12 l988 0 31 26 c38 32 49 80 27 123 -34 64 24 61 -1053 60 -538 0
-988 -4 -999 -9z"/>
<path d="M5015 4983 c-22 -2 -59 -6 -83 -9 l-44 -5 54 -58 c29 -31 65 -70 79
-87 l27 -31 193 -6 c198 -5 294 -18 470 -63 440 -110 850 -372 1144 -729 201
-244 353 -542 430 -844 52 -205 60 -270 60 -541 0 -271 -8 -336 -60 -541 -91
-355 -277 -691 -531 -958 -413 -435 -975 -680 -1560 -681 l-152 0 -18 -28 c-9
-15 -44 -55 -76 -88 l-59 -62 33 -5 c138 -24 443 -15 643 19 632 106 1202 472
1567 1004 219 318 347 661 399 1060 16 124 17 439 1 560 -54 405 -190 759
-417 1085 -358 514 -929 876 -1545 979 -180 30 -404 42 -555 29z"/>
<path d="M5224 3587 c-2 -7 -4 -51 -2 -97 l3 -84 78 -13 c480 -81 777 -579
618 -1039 -97 -282 -330 -479 -624 -528 l-72 -12 -3 -89 c-2 -48 1 -92 5 -96
12 -12 147 9 238 38 305 95 551 341 648 648 159 507 -120 1059 -623 1230 -64
22 -99 29 -228 51 -22 3 -34 1 -38 -9z"/>
<path d="M5220 2610 c0 -172 1 -180 20 -180 25 0 86 54 107 94 9 17 16 55 16
86 0 31 -7 69 -16 86 -21 40 -82 94 -107 94 -19 0 -20 -8 -20 -180z"/>
</g>
</svg>
